<?xml version="1.0" encoding="UTF-8" standalone="no"?><!DOCTYPE svg PUBLIC "-//W3C//DTD SVG 1.1//EN" "http://www.w3.org/Graphics/SVG/1.1/DTD/svg11.dtd"><svg width="100%" height="100%" viewBox="0 0 1846 1846" version="1.1" xmlns="http://www.w3.org/2000/svg" xmlns:xlink="http://www.w3.org/1999/xlink" xml:space="preserve" xmlns:serif="http://www.serif.com/" style="fill-rule:evenodd;clip-rule:evenodd;stroke-linecap:round;stroke-linejoin:round;stroke-miterlimit:10;"><rect id="Artboard1" x="0" y="0" width="1845.71" height="1845.81" style="fill:none;"/><g id="Icon"><path d="M904.12,425.484l-369.908,482.625c-5.75,7.5 -5.729,17.933 0.05,25.412l369.908,478.729c8.279,10.717 24.417,10.809 32.821,0.192l378.862,-478.733c5.975,-7.55 5.996,-18.217 0.05,-25.792l-378.862,-482.625c-8.4,-10.704 -24.642,-10.608 -32.921,0.192Z" style="stroke:#000;stroke-width:4.17px;"/><path d="M278.171,938.954l519.258,662.725c14.996,19.141 1.358,47.154 -22.958,47.154l-167.021,-0c-8.963,-0 -17.429,-4.121 -22.958,-11.179l-550.863,-703.034c-8.371,-10.683 -8.267,-25.725 0.25,-36.291l554.7,-688.217c5.533,-6.867 13.883,-10.862 22.708,-10.862l173.117,-0c24.508,-0 38.088,28.391 22.708,47.47l-528.691,655.942c-8.517,10.567 -8.621,25.608 -0.25,36.292Z" style="fill-rule:nonzero;stroke:#000;stroke-width:4.17px;stroke-linecap:butt;stroke-linejoin:miter;"/><path d="M1568.6,938.954l-519.258,662.725c-14.996,19.141 -1.359,47.154 22.958,47.154l167.021,-0c8.962,-0 17.429,-4.121 22.958,-11.179l550.863,-703.034c8.37,-10.683 8.266,-25.725 -0.25,-36.291l-554.7,-688.217c-5.534,-6.867 -13.884,-10.862 -22.709,-10.862l-173.116,-0c-24.509,-0 -38.088,28.391 -22.709,47.47l528.692,655.942c8.517,10.567 8.621,25.608 0.25,36.292Z" style="fill-rule:nonzero;stroke:#000;stroke-width:4.17px;stroke-linecap:butt;stroke-linejoin:miter;"/></g></svg>